<mxfile host="app.diagrams.net" agent="Mozilla/5.0 (Windows NT 10.0; Win64; x64) AppleWebKit/537.36 (KHTML, like Gecko) Chrome/136.0.0.0 Safari/537.36 Edg/136.0.0.0" version="27.0.9">
  <diagram name="第 1 页" id="L1smn1TE1qxK3f0zrmlo">
    <mxGraphModel dx="2160" dy="1120" grid="1" gridSize="10" guides="1" tooltips="1" connect="1" arrows="1" fold="1" page="1" pageScale="1" pageWidth="1654" pageHeight="1169" math="0" shadow="0">
      <root>
        <mxCell id="0" />
        <mxCell id="1" parent="0" />
        <mxCell id="etWTM3F5lDPgfDxzyT9t-1" value="软考中级网络工程师备考经验述职汇报" style="whiteSpace=wrap;strokeWidth=2;" vertex="1" parent="1">
          <mxGeometry x="2356" y="20" width="260" height="78" as="geometry" />
        </mxCell>
        <mxCell id="etWTM3F5lDPgfDxzyT9t-2" value="个人背景与考证目标" style="whiteSpace=wrap;strokeWidth=2;" vertex="1" parent="1">
          <mxGeometry x="313" y="148" width="204" height="54" as="geometry" />
        </mxCell>
        <mxCell id="etWTM3F5lDPgfDxzyT9t-3" value="系统化备考策略" style="whiteSpace=wrap;strokeWidth=2;" vertex="1" parent="1">
          <mxGeometry x="1167" y="148" width="172" height="54" as="geometry" />
        </mxCell>
        <mxCell id="etWTM3F5lDPgfDxzyT9t-4" value="关键经验总结" style="whiteSpace=wrap;strokeWidth=2;" vertex="1" parent="1">
          <mxGeometry x="2418" y="148" width="156" height="54" as="geometry" />
        </mxCell>
        <mxCell id="etWTM3F5lDPgfDxzyT9t-5" value="成果转化应用" style="whiteSpace=wrap;strokeWidth=2;" vertex="1" parent="1">
          <mxGeometry x="3107" y="148" width="156" height="54" as="geometry" />
        </mxCell>
        <mxCell id="etWTM3F5lDPgfDxzyT9t-6" value="未来提升方向" style="whiteSpace=wrap;strokeWidth=2;" vertex="1" parent="1">
          <mxGeometry x="3804" y="148" width="156" height="54" as="geometry" />
        </mxCell>
        <mxCell id="etWTM3F5lDPgfDxzyT9t-7" value="现岗位职责：&#xa;事业单位网络运维与技术保障" style="rounded=1;arcSize=20;strokeWidth=2" vertex="1" parent="1">
          <mxGeometry x="20" y="252" width="230" height="102" as="geometry" />
        </mxCell>
        <mxCell id="etWTM3F5lDPgfDxzyT9t-8" value="考证动机：&#xa;职称晋升需求/技术体系完善" style="rounded=1;arcSize=20;strokeWidth=2" vertex="1" parent="1">
          <mxGeometry x="300" y="252" width="230" height="102" as="geometry" />
        </mxCell>
        <mxCell id="etWTM3F5lDPgfDxzyT9t-9" value="资质基础：&#xa;5年网络管理经验/CCNA认证" style="rounded=1;arcSize=20;strokeWidth=2" vertex="1" parent="1">
          <mxGeometry x="580" y="264" width="230" height="78" as="geometry" />
        </mxCell>
        <mxCell id="etWTM3F5lDPgfDxzyT9t-10" value="三阶段备考规划" style="rounded=1;arcSize=20;strokeWidth=2" vertex="1" parent="1">
          <mxGeometry x="860" y="276" width="142" height="54" as="geometry" />
        </mxCell>
        <mxCell id="etWTM3F5lDPgfDxzyT9t-11" value="准备阶段（1个月）&#xa;考纲解析/教材筛选" style="rounded=1;arcSize=20;strokeWidth=2" vertex="1" parent="1">
          <mxGeometry x="631" y="404" width="166" height="78" as="geometry" />
        </mxCell>
        <mxCell id="etWTM3F5lDPgfDxzyT9t-12" value="强化阶段（2个月）&#xa;专题突破/实验模拟" style="rounded=1;arcSize=20;strokeWidth=2" vertex="1" parent="1">
          <mxGeometry x="847" y="404" width="166" height="78" as="geometry" />
        </mxCell>
        <mxCell id="etWTM3F5lDPgfDxzyT9t-13" value="冲刺阶段（3周）&#xa;真题演练/错题复盘" style="rounded=1;arcSize=20;strokeWidth=2" vertex="1" parent="1">
          <mxGeometry x="1064" y="404" width="166" height="78" as="geometry" />
        </mxCell>
        <mxCell id="etWTM3F5lDPgfDxzyT9t-14" value="高效学习方法" style="rounded=1;arcSize=20;strokeWidth=2" vertex="1" parent="1">
          <mxGeometry x="1512" y="276" width="126" height="54" as="geometry" />
        </mxCell>
        <mxCell id="etWTM3F5lDPgfDxzyT9t-15" value="双轨知识体系：&#xa;理论↔实践" style="rounded=1;arcSize=20;strokeWidth=2" vertex="1" parent="1">
          <mxGeometry x="1280" y="404" width="142" height="78" as="geometry" />
        </mxCell>
        <mxCell id="etWTM3F5lDPgfDxzyT9t-16" value="工具应用：&#xa;Packet Tracer/Wireshark" style="rounded=1;arcSize=20;strokeWidth=2" vertex="1" parent="1">
          <mxGeometry x="1472" y="404" width="206" height="78" as="geometry" />
        </mxCell>
        <mxCell id="etWTM3F5lDPgfDxzyT9t-17" value="学习社群：&#xa;软考论坛/技术群组" style="rounded=1;arcSize=20;strokeWidth=2" vertex="1" parent="1">
          <mxGeometry x="1729" y="404" width="166" height="78" as="geometry" />
        </mxCell>
        <mxCell id="etWTM3F5lDPgfDxzyT9t-18" value="成功要素" style="rounded=1;arcSize=20;strokeWidth=2" vertex="1" parent="1">
          <mxGeometry x="2167" y="276" width="94" height="54" as="geometry" />
        </mxCell>
        <mxCell id="etWTM3F5lDPgfDxzyT9t-19" value="时间管理：&#xa;碎片化学习法" style="rounded=1;arcSize=20;strokeWidth=2" vertex="1" parent="1">
          <mxGeometry x="1945" y="404" width="126" height="78" as="geometry" />
        </mxCell>
        <mxCell id="etWTM3F5lDPgfDxzyT9t-20" value="应试技巧：&#xa;题型分解/时间分配" style="rounded=1;arcSize=20;strokeWidth=2" vertex="1" parent="1">
          <mxGeometry x="2121" y="404" width="166" height="78" as="geometry" />
        </mxCell>
        <mxCell id="etWTM3F5lDPgfDxzyT9t-21" value="心理建设：&#xa;模拟压力测试" style="rounded=1;arcSize=20;strokeWidth=2" vertex="1" parent="1">
          <mxGeometry x="2337" y="404" width="126" height="78" as="geometry" />
        </mxCell>
        <mxCell id="etWTM3F5lDPgfDxzyT9t-22" value="突破难点" style="rounded=1;arcSize=20;strokeWidth=2" vertex="1" parent="1">
          <mxGeometry x="2721" y="276" width="94" height="54" as="geometry" />
        </mxCell>
        <mxCell id="etWTM3F5lDPgfDxzyT9t-23" value="上午题：&#xa;计算机组成原理" style="rounded=1;arcSize=20;strokeWidth=2" vertex="1" parent="1">
          <mxGeometry x="2513" y="404" width="142" height="78" as="geometry" />
        </mxCell>
        <mxCell id="etWTM3F5lDPgfDxzyT9t-24" value="下午题：&#xa;网络规划设计" style="rounded=1;arcSize=20;strokeWidth=2" vertex="1" parent="1">
          <mxGeometry x="2705" y="404" width="126" height="78" as="geometry" />
        </mxCell>
        <mxCell id="etWTM3F5lDPgfDxzyT9t-25" value="实验题：&#xa;VPN隧道配置" style="rounded=1;arcSize=20;strokeWidth=2" vertex="1" parent="1">
          <mxGeometry x="2881" y="404" width="123" height="78" as="geometry" />
        </mxCell>
        <mxCell id="etWTM3F5lDPgfDxzyT9t-26" value="持证优势：&#xa;纳入专业技术人才库" style="rounded=1;arcSize=20;strokeWidth=2" vertex="1" parent="1">
          <mxGeometry x="2865" y="264" width="174" height="78" as="geometry" />
        </mxCell>
        <mxCell id="etWTM3F5lDPgfDxzyT9t-27" value="工作提升：&#xa;ISO27001安全体系落地" style="rounded=1;arcSize=20;strokeWidth=2" vertex="1" parent="1">
          <mxGeometry x="3089" y="264" width="191" height="78" as="geometry" />
        </mxCell>
        <mxCell id="etWTM3F5lDPgfDxzyT9t-28" value="技术辐射：&#xa;组织部门培训3场" style="rounded=1;arcSize=20;strokeWidth=2" vertex="1" parent="1">
          <mxGeometry x="3330" y="264" width="150" height="78" as="geometry" />
        </mxCell>
        <mxCell id="etWTM3F5lDPgfDxzyT9t-29" value="技术深化：&#xa;备战高级网络规划设计师" style="rounded=1;arcSize=20;strokeWidth=2" vertex="1" parent="1">
          <mxGeometry x="3531" y="264" width="206" height="78" as="geometry" />
        </mxCell>
        <mxCell id="etWTM3F5lDPgfDxzyT9t-30" value="成果转化：&#xa;智慧园区网络改造项目" style="rounded=1;arcSize=20;strokeWidth=2" vertex="1" parent="1">
          <mxGeometry x="3787" y="264" width="190" height="78" as="geometry" />
        </mxCell>
        <mxCell id="etWTM3F5lDPgfDxzyT9t-31" value="经验传承：&#xa;建立新员工备考机制" style="rounded=1;arcSize=20;strokeWidth=2" vertex="1" parent="1">
          <mxGeometry x="4027" y="264" width="174" height="78" as="geometry" />
        </mxCell>
        <mxCell id="etWTM3F5lDPgfDxzyT9t-32" value="" style="curved=1;startArrow=none;endArrow=block;exitX=0;exitY=0.55;entryX=0.5;entryY=0;rounded=0;" edge="1" parent="1" source="etWTM3F5lDPgfDxzyT9t-1" target="etWTM3F5lDPgfDxzyT9t-2">
          <mxGeometry relative="1" as="geometry">
            <Array as="points">
              <mxPoint x="415" y="123" />
            </Array>
          </mxGeometry>
        </mxCell>
        <mxCell id="etWTM3F5lDPgfDxzyT9t-33" value="" style="curved=1;startArrow=none;endArrow=block;exitX=0;exitY=0.59;entryX=0.5;entryY=0;rounded=0;" edge="1" parent="1" source="etWTM3F5lDPgfDxzyT9t-1" target="etWTM3F5lDPgfDxzyT9t-3">
          <mxGeometry relative="1" as="geometry">
            <Array as="points">
              <mxPoint x="1253" y="123" />
            </Array>
          </mxGeometry>
        </mxCell>
        <mxCell id="etWTM3F5lDPgfDxzyT9t-34" value="" style="curved=1;startArrow=none;endArrow=block;exitX=0.52;exitY=1;entryX=0.5;entryY=0;rounded=0;" edge="1" parent="1" source="etWTM3F5lDPgfDxzyT9t-1" target="etWTM3F5lDPgfDxzyT9t-4">
          <mxGeometry relative="1" as="geometry">
            <Array as="points">
              <mxPoint x="2496" y="123" />
            </Array>
          </mxGeometry>
        </mxCell>
        <mxCell id="etWTM3F5lDPgfDxzyT9t-35" value="" style="curved=1;startArrow=none;endArrow=block;exitX=1;exitY=0.65;entryX=0.5;entryY=0;rounded=0;" edge="1" parent="1" source="etWTM3F5lDPgfDxzyT9t-1" target="etWTM3F5lDPgfDxzyT9t-5">
          <mxGeometry relative="1" as="geometry">
            <Array as="points">
              <mxPoint x="3185" y="123" />
            </Array>
          </mxGeometry>
        </mxCell>
        <mxCell id="etWTM3F5lDPgfDxzyT9t-36" value="" style="curved=1;startArrow=none;endArrow=block;exitX=1;exitY=0.58;entryX=0.5;entryY=0;rounded=0;" edge="1" parent="1" source="etWTM3F5lDPgfDxzyT9t-1" target="etWTM3F5lDPgfDxzyT9t-6">
          <mxGeometry relative="1" as="geometry">
            <Array as="points">
              <mxPoint x="3882" y="123" />
            </Array>
          </mxGeometry>
        </mxCell>
        <mxCell id="etWTM3F5lDPgfDxzyT9t-37" value="" style="curved=1;startArrow=none;endArrow=block;exitX=0;exitY=0.85;entryX=0.5;entryY=0;rounded=0;" edge="1" parent="1" source="etWTM3F5lDPgfDxzyT9t-2" target="etWTM3F5lDPgfDxzyT9t-7">
          <mxGeometry relative="1" as="geometry">
            <Array as="points">
              <mxPoint x="135" y="227" />
            </Array>
          </mxGeometry>
        </mxCell>
        <mxCell id="etWTM3F5lDPgfDxzyT9t-38" value="" style="curved=1;startArrow=none;endArrow=block;exitX=0.5;exitY=1;entryX=0.5;entryY=0;rounded=0;" edge="1" parent="1" source="etWTM3F5lDPgfDxzyT9t-2" target="etWTM3F5lDPgfDxzyT9t-8">
          <mxGeometry relative="1" as="geometry">
            <Array as="points" />
          </mxGeometry>
        </mxCell>
        <mxCell id="etWTM3F5lDPgfDxzyT9t-39" value="" style="curved=1;startArrow=none;endArrow=block;exitX=1;exitY=0.85;entryX=0.5;entryY=0;rounded=0;" edge="1" parent="1" source="etWTM3F5lDPgfDxzyT9t-2" target="etWTM3F5lDPgfDxzyT9t-9">
          <mxGeometry relative="1" as="geometry">
            <Array as="points">
              <mxPoint x="695" y="227" />
            </Array>
          </mxGeometry>
        </mxCell>
        <mxCell id="etWTM3F5lDPgfDxzyT9t-40" value="" style="curved=1;startArrow=none;endArrow=block;exitX=0;exitY=0.76;entryX=0.5;entryY=0;rounded=0;" edge="1" parent="1" source="etWTM3F5lDPgfDxzyT9t-3" target="etWTM3F5lDPgfDxzyT9t-10">
          <mxGeometry relative="1" as="geometry">
            <Array as="points">
              <mxPoint x="931" y="227" />
            </Array>
          </mxGeometry>
        </mxCell>
        <mxCell id="etWTM3F5lDPgfDxzyT9t-41" value="" style="curved=1;startArrow=none;endArrow=block;exitX=0;exitY=0.96;entryX=0.5;entryY=0;rounded=0;" edge="1" parent="1" source="etWTM3F5lDPgfDxzyT9t-10" target="etWTM3F5lDPgfDxzyT9t-11">
          <mxGeometry relative="1" as="geometry">
            <Array as="points">
              <mxPoint x="714" y="379" />
            </Array>
          </mxGeometry>
        </mxCell>
        <mxCell id="etWTM3F5lDPgfDxzyT9t-42" value="" style="curved=1;startArrow=none;endArrow=block;exitX=0.5;exitY=1;entryX=0.5;entryY=0;rounded=0;" edge="1" parent="1" source="etWTM3F5lDPgfDxzyT9t-10" target="etWTM3F5lDPgfDxzyT9t-12">
          <mxGeometry relative="1" as="geometry">
            <Array as="points" />
          </mxGeometry>
        </mxCell>
        <mxCell id="etWTM3F5lDPgfDxzyT9t-43" value="" style="curved=1;startArrow=none;endArrow=block;exitX=1;exitY=0.96;entryX=0.5;entryY=0;rounded=0;" edge="1" parent="1" source="etWTM3F5lDPgfDxzyT9t-10" target="etWTM3F5lDPgfDxzyT9t-13">
          <mxGeometry relative="1" as="geometry">
            <Array as="points">
              <mxPoint x="1147" y="379" />
            </Array>
          </mxGeometry>
        </mxCell>
        <mxCell id="etWTM3F5lDPgfDxzyT9t-44" value="" style="curved=1;startArrow=none;endArrow=block;exitX=1;exitY=0.76;entryX=0.5;entryY=0;rounded=0;" edge="1" parent="1" source="etWTM3F5lDPgfDxzyT9t-3" target="etWTM3F5lDPgfDxzyT9t-14">
          <mxGeometry relative="1" as="geometry">
            <Array as="points">
              <mxPoint x="1575" y="227" />
            </Array>
          </mxGeometry>
        </mxCell>
        <mxCell id="etWTM3F5lDPgfDxzyT9t-45" value="" style="curved=1;startArrow=none;endArrow=block;exitX=0;exitY=0.9;entryX=0.5;entryY=0;rounded=0;" edge="1" parent="1" source="etWTM3F5lDPgfDxzyT9t-14" target="etWTM3F5lDPgfDxzyT9t-15">
          <mxGeometry relative="1" as="geometry">
            <Array as="points">
              <mxPoint x="1351" y="379" />
            </Array>
          </mxGeometry>
        </mxCell>
        <mxCell id="etWTM3F5lDPgfDxzyT9t-46" value="" style="curved=1;startArrow=none;endArrow=block;exitX=0.5;exitY=1;entryX=0.5;entryY=0;rounded=0;" edge="1" parent="1" source="etWTM3F5lDPgfDxzyT9t-14" target="etWTM3F5lDPgfDxzyT9t-16">
          <mxGeometry relative="1" as="geometry">
            <Array as="points" />
          </mxGeometry>
        </mxCell>
        <mxCell id="etWTM3F5lDPgfDxzyT9t-47" value="" style="curved=1;startArrow=none;endArrow=block;exitX=1;exitY=0.88;entryX=0.5;entryY=0;rounded=0;" edge="1" parent="1" source="etWTM3F5lDPgfDxzyT9t-14" target="etWTM3F5lDPgfDxzyT9t-17">
          <mxGeometry relative="1" as="geometry">
            <Array as="points">
              <mxPoint x="1812" y="379" />
            </Array>
          </mxGeometry>
        </mxCell>
        <mxCell id="etWTM3F5lDPgfDxzyT9t-48" value="" style="curved=1;startArrow=none;endArrow=block;exitX=0;exitY=0.77;entryX=0.5;entryY=0;rounded=0;" edge="1" parent="1" source="etWTM3F5lDPgfDxzyT9t-4" target="etWTM3F5lDPgfDxzyT9t-18">
          <mxGeometry relative="1" as="geometry">
            <Array as="points">
              <mxPoint x="2214" y="227" />
            </Array>
          </mxGeometry>
        </mxCell>
        <mxCell id="etWTM3F5lDPgfDxzyT9t-49" value="" style="curved=1;startArrow=none;endArrow=block;exitX=0;exitY=0.82;entryX=0.5;entryY=0;rounded=0;" edge="1" parent="1" source="etWTM3F5lDPgfDxzyT9t-18" target="etWTM3F5lDPgfDxzyT9t-19">
          <mxGeometry relative="1" as="geometry">
            <Array as="points">
              <mxPoint x="2008" y="379" />
            </Array>
          </mxGeometry>
        </mxCell>
        <mxCell id="etWTM3F5lDPgfDxzyT9t-50" value="" style="curved=1;startArrow=none;endArrow=block;exitX=0.46;exitY=1;entryX=0.5;entryY=0;rounded=0;" edge="1" parent="1" source="etWTM3F5lDPgfDxzyT9t-18" target="etWTM3F5lDPgfDxzyT9t-20">
          <mxGeometry relative="1" as="geometry">
            <Array as="points">
              <mxPoint x="2204" y="379" />
            </Array>
          </mxGeometry>
        </mxCell>
        <mxCell id="etWTM3F5lDPgfDxzyT9t-51" value="" style="curved=1;startArrow=none;endArrow=block;exitX=1;exitY=0.86;entryX=0.5;entryY=0;rounded=0;" edge="1" parent="1" source="etWTM3F5lDPgfDxzyT9t-18" target="etWTM3F5lDPgfDxzyT9t-21">
          <mxGeometry relative="1" as="geometry">
            <Array as="points">
              <mxPoint x="2400" y="379" />
            </Array>
          </mxGeometry>
        </mxCell>
        <mxCell id="etWTM3F5lDPgfDxzyT9t-52" value="" style="curved=1;startArrow=none;endArrow=block;exitX=1;exitY=0.78;entryX=0.5;entryY=0;rounded=0;" edge="1" parent="1" source="etWTM3F5lDPgfDxzyT9t-4" target="etWTM3F5lDPgfDxzyT9t-22">
          <mxGeometry relative="1" as="geometry">
            <Array as="points">
              <mxPoint x="2768" y="227" />
            </Array>
          </mxGeometry>
        </mxCell>
        <mxCell id="etWTM3F5lDPgfDxzyT9t-53" value="" style="curved=1;startArrow=none;endArrow=block;exitX=0;exitY=0.86;entryX=0.5;entryY=0;rounded=0;" edge="1" parent="1" source="etWTM3F5lDPgfDxzyT9t-22" target="etWTM3F5lDPgfDxzyT9t-23">
          <mxGeometry relative="1" as="geometry">
            <Array as="points">
              <mxPoint x="2584" y="379" />
            </Array>
          </mxGeometry>
        </mxCell>
        <mxCell id="etWTM3F5lDPgfDxzyT9t-54" value="" style="curved=1;startArrow=none;endArrow=block;exitX=0.5;exitY=1;entryX=0.5;entryY=0;rounded=0;" edge="1" parent="1" source="etWTM3F5lDPgfDxzyT9t-22" target="etWTM3F5lDPgfDxzyT9t-24">
          <mxGeometry relative="1" as="geometry">
            <Array as="points" />
          </mxGeometry>
        </mxCell>
        <mxCell id="etWTM3F5lDPgfDxzyT9t-55" value="" style="curved=1;startArrow=none;endArrow=block;exitX=1;exitY=0.88;entryX=0.5;entryY=0;rounded=0;" edge="1" parent="1" source="etWTM3F5lDPgfDxzyT9t-22" target="etWTM3F5lDPgfDxzyT9t-25">
          <mxGeometry relative="1" as="geometry">
            <Array as="points">
              <mxPoint x="2943" y="379" />
            </Array>
          </mxGeometry>
        </mxCell>
        <mxCell id="etWTM3F5lDPgfDxzyT9t-56" value="" style="curved=1;startArrow=none;endArrow=block;exitX=0;exitY=0.82;entryX=0.5;entryY=0;rounded=0;" edge="1" parent="1" source="etWTM3F5lDPgfDxzyT9t-5" target="etWTM3F5lDPgfDxzyT9t-26">
          <mxGeometry relative="1" as="geometry">
            <Array as="points">
              <mxPoint x="2952" y="227" />
            </Array>
          </mxGeometry>
        </mxCell>
        <mxCell id="etWTM3F5lDPgfDxzyT9t-57" value="" style="curved=1;startArrow=none;endArrow=block;exitX=0.5;exitY=1;entryX=0.5;entryY=0;rounded=0;" edge="1" parent="1" source="etWTM3F5lDPgfDxzyT9t-5" target="etWTM3F5lDPgfDxzyT9t-27">
          <mxGeometry relative="1" as="geometry">
            <Array as="points" />
          </mxGeometry>
        </mxCell>
        <mxCell id="etWTM3F5lDPgfDxzyT9t-58" value="" style="curved=1;startArrow=none;endArrow=block;exitX=1;exitY=0.84;entryX=0.5;entryY=0;rounded=0;" edge="1" parent="1" source="etWTM3F5lDPgfDxzyT9t-5" target="etWTM3F5lDPgfDxzyT9t-28">
          <mxGeometry relative="1" as="geometry">
            <Array as="points">
              <mxPoint x="3405" y="227" />
            </Array>
          </mxGeometry>
        </mxCell>
        <mxCell id="etWTM3F5lDPgfDxzyT9t-59" value="" style="curved=1;startArrow=none;endArrow=block;exitX=0;exitY=0.8;entryX=0.5;entryY=0;rounded=0;" edge="1" parent="1" source="etWTM3F5lDPgfDxzyT9t-6" target="etWTM3F5lDPgfDxzyT9t-29">
          <mxGeometry relative="1" as="geometry">
            <Array as="points">
              <mxPoint x="3634" y="227" />
            </Array>
          </mxGeometry>
        </mxCell>
        <mxCell id="etWTM3F5lDPgfDxzyT9t-60" value="" style="curved=1;startArrow=none;endArrow=block;exitX=0.5;exitY=1;entryX=0.5;entryY=0;rounded=0;" edge="1" parent="1" source="etWTM3F5lDPgfDxzyT9t-6" target="etWTM3F5lDPgfDxzyT9t-30">
          <mxGeometry relative="1" as="geometry">
            <Array as="points" />
          </mxGeometry>
        </mxCell>
        <mxCell id="etWTM3F5lDPgfDxzyT9t-61" value="" style="curved=1;startArrow=none;endArrow=block;exitX=1;exitY=0.82;entryX=0.5;entryY=0;rounded=0;" edge="1" parent="1" source="etWTM3F5lDPgfDxzyT9t-6" target="etWTM3F5lDPgfDxzyT9t-31">
          <mxGeometry relative="1" as="geometry">
            <Array as="points">
              <mxPoint x="4114" y="227" />
            </Array>
          </mxGeometry>
        </mxCell>
      </root>
    </mxGraphModel>
  </diagram>
</mxfile>
